<svg xmlns="http://www.w3.org/2000/svg" viewBox="0 0 354.0 64" width="353" height="64">
  <!--
    JS CATALYST – Cormorant Garamond Regular
    Pure vector paths extracted from the actual font. Zero font dependency.
    To switch states: change fill="#2c2c2c" to fill="#ffffff"
  -->
  <g fill="#ffffff" id="wordmark">
    <path transform="translate(0.000,48) scale(0.044000,-0.044000)" d="M280 625Q282 625 282.0 619.0Q282 613 280 613Q248 613 232.5 607.0Q217 601 211.5 586.0Q206 571 206 542V-28Q206 -124 161.0 -184.0Q116 -244 27 -244Q-7 -244 -26.5 -232.0Q-46 -220 -46 -201Q-46 -186 -37.0 -177.0Q-28 -168 -12 -168Q6 -168 15.5 -176.0Q25 -184 31.5 -195.5Q38 -207 46.0 -215.5Q54 -224 69 -224Q104 -224 122.0 -183.5Q140 -143 140 -49V544Q140 573 133.0 587.5Q126 602 105.0 607.5Q84 613 42 613Q40 613 40.0 619.0Q40 625 42 625Q71 625 104.0 623.5Q137 622 172 622Q205 622 231.5 623.5Q258 625 280 625Z"/>
    <path transform="translate(22.088,48) scale(0.044000,-0.044000)" d="M145 508Q145 467 165.5 437.5Q186 408 218.0 386.0Q250 364 286 342Q323 321 357.5 297.0Q392 273 414.5 240.0Q437 207 437 159Q437 111 413.0 72.5Q389 34 343.5 11.0Q298 -12 231 -12Q207 -12 183.5 -8.5Q160 -5 136.5 3.0Q113 11 90 23Q85 26 83.5 30.5Q82 35 81 42L68 178Q67 183 72.5 183.5Q78 184 79 180Q86 150 99.0 119.0Q112 88 133.0 62.0Q154 36 184.0 20.0Q214 4 254 4Q283 4 310.5 15.0Q338 26 355.5 51.0Q373 76 373 119Q373 168 351.5 200.5Q330 233 297.0 257.0Q264 281 227 302Q192 324 159.5 347.0Q127 370 106.5 401.5Q86 433 86 480Q86 533 113.0 567.5Q140 602 183.0 619.0Q226 636 272 636Q300 636 330.0 630.5Q360 625 389 612Q397 609 400.5 604.5Q404 600 404 595L411 481Q411 477 406.0 476.5Q401 476 399 480Q397 500 388.0 524.5Q379 549 362.0 571.0Q345 593 319.0 607.0Q293 621 256 621Q217 621 192.5 604.5Q168 588 156.5 562.5Q145 537 145 508Z"/>
    <path transform="translate(67.012,48) scale(0.044000,-0.044000)" d="M411 636Q453 636 485.5 632.0Q518 628 546.0 619.5Q574 611 603 596Q610 592 611.5 589.5Q613 587 614 574L626 455Q626 453 621.0 451.5Q616 450 614 454Q591 537 540.5 579.0Q490 621 408 621Q323 621 259.5 584.0Q196 547 160.5 479.0Q125 411 125 319Q125 253 147.5 195.5Q170 138 210.0 94.5Q250 51 301.5 27.0Q353 3 411 3Q494 3 545.0 43.5Q596 84 622 165Q623 168 628.5 167.0Q634 166 634 164L624 54Q623 42 621.0 39.0Q619 36 613 32Q561 6 515.0 -3.5Q469 -13 411 -13Q305 -13 223.5 28.5Q142 70 95.5 144.5Q49 219 49 317Q49 389 76.0 447.5Q103 506 152.0 548.0Q201 590 267.0 613.0Q333 636 411 636Z"/>
    <path transform="translate(105.116,48) scale(0.044000,-0.044000)" d="M194 275 204 295H469L476 275ZM699 12Q703 12 703.0 6.0Q703 0 699 0Q670 0 640.0 2.0Q610 4 582 4Q551 4 528.0 2.0Q505 0 477 0Q473 0 473.0 6.0Q473 12 477 12Q530 12 543.0 27.5Q556 43 536 86L314 555L339 586L145 127Q120 66 142.0 39.0Q164 12 229 12Q234 12 234.0 6.0Q234 0 229 0Q199 0 174.0 2.0Q149 4 111 4Q75 4 53.5 2.0Q32 0 1 0Q-3 0 -3.0 6.0Q-3 12 1 12Q28 12 48.0 22.5Q68 33 85.5 59.5Q103 86 124 136L335 634Q337 637 342.0 637.0Q347 637 348 634L584 137Q607 88 625.0 60.5Q643 33 660.5 22.5Q678 12 699 12Z"/>
    <path transform="translate(143.924,48) scale(0.044000,-0.044000)" d="M188 607Q126 607 94.5 575.0Q63 543 49 466Q49 464 43.5 464.0Q38 464 38 466Q40 479 42.0 502.5Q44 526 46.5 553.0Q49 580 50.5 605.5Q52 631 52 647Q52 652 57.5 652.0Q63 652 63 647Q63 637 73.0 632.5Q83 628 95.5 626.5Q108 625 117 625Q203 622 318 622Q389 622 430.5 623.5Q472 625 511 625Q545 625 563.5 629.5Q582 634 587 650Q588 654 593.0 654.0Q598 654 598 650Q597 635 595.0 609.0Q593 583 592.0 555.0Q591 527 590.0 503.0Q589 479 589 466Q589 464 583.0 464.0Q577 464 577 466Q574 544 545.0 575.5Q516 607 449 607Q407 607 386.0 603.0Q365 599 358.5 585.5Q352 572 352 542V81Q352 52 359.0 37.0Q366 22 386.5 17.0Q407 12 449 12Q452 12 452.0 6.0Q452 0 449 0Q423 0 390.0 1.0Q357 2 318 2Q281 2 248.0 1.0Q215 0 188 0Q186 0 186.0 6.0Q186 12 188 12Q229 12 250.5 17.0Q272 22 279.0 37.0Q286 52 286 81V544Q286 574 279.0 587.5Q272 601 251.0 604.0Q230 607 188 607Z"/>
    <path transform="translate(179.740,48) scale(0.044000,-0.044000)" d="M194 275 204 295H469L476 275ZM699 12Q703 12 703.0 6.0Q703 0 699 0Q670 0 640.0 2.0Q610 4 582 4Q551 4 528.0 2.0Q505 0 477 0Q473 0 473.0 6.0Q473 12 477 12Q530 12 543.0 27.5Q556 43 536 86L314 555L339 586L145 127Q120 66 142.0 39.0Q164 12 229 12Q234 12 234.0 6.0Q234 0 229 0Q199 0 174.0 2.0Q149 4 111 4Q75 4 53.5 2.0Q32 0 1 0Q-3 0 -3.0 6.0Q-3 12 1 12Q28 12 48.0 22.5Q68 33 85.5 59.5Q103 86 124 136L335 634Q337 637 342.0 637.0Q347 637 348 634L584 137Q607 88 625.0 60.5Q643 33 660.5 22.5Q678 12 699 12Z"/>
    <path transform="translate(218.548,48) scale(0.044000,-0.044000)" d="M185 543V85Q185 58 191.0 44.0Q197 30 214.5 25.5Q232 21 265 21H374Q432 21 466.0 57.5Q500 94 510 153Q510 156 515.5 155.5Q521 155 521 152Q518 125 515.0 86.5Q512 48 512 15Q512 0 497 0H35Q33 0 33.0 6.0Q33 12 35 12Q71 12 89.5 17.0Q108 22 114.0 37.0Q120 52 120 81V544Q120 573 114.0 587.5Q108 602 89.5 607.5Q71 613 35 613Q33 613 33.0 619.0Q33 625 35 625Q59 625 89.0 623.5Q119 622 152 622Q187 622 217.0 623.5Q247 625 270 625Q273 625 273.0 619.0Q273 613 270 613Q234 613 215.5 607.5Q197 602 191.0 587.0Q185 572 185 543Z"/>
    <path transform="translate(249.920,48) scale(0.044000,-0.044000)" d="M301 288 451 518Q480 565 472.0 589.0Q464 613 419 613Q417 613 417.0 619.0Q417 625 419 625Q446 625 471.0 623.5Q496 622 536 622Q561 622 576.5 623.5Q592 625 614 625Q616 625 616.0 619.0Q616 613 614 613Q590 613 565.0 601.0Q540 589 517.5 567.0Q495 545 475 514L318 273ZM290 272 110 536Q82 579 57.0 596.0Q32 613 -1 613Q-4 613 -4.0 619.0Q-4 625 -1 625Q16 625 35.0 623.5Q54 622 70 622Q97 622 122.5 622.5Q148 623 170.5 624.0Q193 625 210 625Q212 625 212.0 619.0Q212 613 210 613Q171 613 161.5 602.0Q152 591 168 568L339 317ZM276 310 341 319V81Q341 52 347.0 37.0Q353 22 371.0 17.0Q389 12 426 12Q429 12 429.0 6.0Q429 0 426 0Q402 0 372.5 1.0Q343 2 308 2Q275 2 244.0 1.0Q213 0 190 0Q187 0 187.0 6.0Q187 12 190 12Q226 12 245.0 17.0Q264 22 270.0 37.0Q276 52 276 81Z"/>
    <path transform="translate(284.636,48) scale(0.044000,-0.044000)" d="M145 508Q145 467 165.5 437.5Q186 408 218.0 386.0Q250 364 286 342Q323 321 357.5 297.0Q392 273 414.5 240.0Q437 207 437 159Q437 111 413.0 72.5Q389 34 343.5 11.0Q298 -12 231 -12Q207 -12 183.5 -8.5Q160 -5 136.5 3.0Q113 11 90 23Q85 26 83.5 30.5Q82 35 81 42L68 178Q67 183 72.5 183.5Q78 184 79 180Q86 150 99.0 119.0Q112 88 133.0 62.0Q154 36 184.0 20.0Q214 4 254 4Q283 4 310.5 15.0Q338 26 355.5 51.0Q373 76 373 119Q373 168 351.5 200.5Q330 233 297.0 257.0Q264 281 227 302Q192 324 159.5 347.0Q127 370 106.5 401.5Q86 433 86 480Q86 533 113.0 567.5Q140 602 183.0 619.0Q226 636 272 636Q300 636 330.0 630.5Q360 625 389 612Q397 609 400.5 604.5Q404 600 404 595L411 481Q411 477 406.0 476.5Q401 476 399 480Q397 500 388.0 524.5Q379 549 362.0 571.0Q345 593 319.0 607.0Q293 621 256 621Q217 621 192.5 604.5Q168 588 156.5 562.5Q145 537 145 508Z"/>
    <path transform="translate(314.160,48) scale(0.044000,-0.044000)" d="M188 607Q126 607 94.5 575.0Q63 543 49 466Q49 464 43.5 464.0Q38 464 38 466Q40 479 42.0 502.5Q44 526 46.5 553.0Q49 580 50.5 605.5Q52 631 52 647Q52 652 57.5 652.0Q63 652 63 647Q63 637 73.0 632.5Q83 628 95.5 626.5Q108 625 117 625Q203 622 318 622Q389 622 430.5 623.5Q472 625 511 625Q545 625 563.5 629.5Q582 634 587 650Q588 654 593.0 654.0Q598 654 598 650Q597 635 595.0 609.0Q593 583 592.0 555.0Q591 527 590.0 503.0Q589 479 589 466Q589 464 583.0 464.0Q577 464 577 466Q574 544 545.0 575.5Q516 607 449 607Q407 607 386.0 603.0Q365 599 358.5 585.5Q352 572 352 542V81Q352 52 359.0 37.0Q366 22 386.5 17.0Q407 12 449 12Q452 12 452.0 6.0Q452 0 449 0Q423 0 390.0 1.0Q357 2 318 2Q281 2 248.0 1.0Q215 0 188 0Q186 0 186.0 6.0Q186 12 188 12Q229 12 250.5 17.0Q272 22 279.0 37.0Q286 52 286 81V544Q286 574 279.0 587.5Q272 601 251.0 604.0Q230 607 188 607Z"/>
  </g>
</svg>